<svg width="503" height="167" viewBox="0 0 503 167" fill="none" xmlns="http://www.w3.org/2000/svg">
<path d="M0 5C0 2.23858 2.23858 0 5 0H498C500.761 0 503 2.23858 503 5V102H0V5Z" fill="#EDC589"/>
<path d="M251.5 165.417C287.353 165.417 316.417 136.352 316.417 100.5C316.417 64.6475 287.353 35.5833 251.5 35.5833C215.648 35.5833 186.583 64.6475 186.583 100.5C186.583 136.352 215.648 165.417 251.5 165.417Z" fill="#7CCF92"/>
<path d="M291.752 49.8333C300.451 60.8559 305.644 74.7744 305.644 89.906C305.644 125.66 276.66 154.644 240.906 154.644C225.774 154.644 211.856 149.451 200.833 140.752C212.689 155.773 231.057 165.417 251.679 165.417C287.433 165.417 316.417 136.433 316.417 100.679C316.417 80.057 306.774 61.6885 291.752 49.8333Z" fill="#68AE7A"/>
<path d="M316.045 98.9167C314.965 98.9167 314.09 99.7841 314.09 100.855C314.09 117.488 307.557 133.125 295.694 144.886C283.831 156.647 268.058 163.124 251.281 163.124C235.53 163.124 220.464 157.318 208.859 146.775C208.063 146.052 206.827 146.105 206.097 146.894C205.367 147.683 205.421 148.909 206.217 149.632C218.545 160.832 234.549 167 251.281 167C269.102 167 285.857 160.12 298.459 147.627C311.06 135.133 318 118.523 318 100.855C318 99.7841 317.125 98.9167 316.045 98.9167Z" fill="#333333"/>
<path d="M188.915 100.339C188.915 83.6577 195.458 67.9744 207.337 56.1789C219.216 44.3832 235.011 37.8871 251.81 37.8871C267.083 37.8871 281.809 43.3889 293.274 53.3794C304.636 63.2783 312.033 76.8727 314.103 91.6581C314.252 92.7216 315.244 93.463 316.312 93.3155C317.383 93.1678 318.13 92.1862 317.981 91.123C315.781 75.4137 307.924 60.9717 295.857 50.4576C283.677 39.8449 268.034 34 251.81 34C233.965 34 217.187 40.9006 204.568 53.4302C191.949 65.9603 185 82.6196 185 100.339C185 115.717 190.42 130.705 200.261 142.544C200.648 143.009 201.208 143.25 201.772 143.25C202.211 143.25 202.652 143.104 203.017 142.805C203.851 142.122 203.969 140.897 203.281 140.069C194.017 128.926 188.915 114.816 188.915 100.339Z" fill="#333333"/>
<path d="M275.847 75.1666L245.018 106.261C244.187 107.099 242.839 107.099 242.008 106.261L228.737 92.8757L218.25 103.452L238.27 123.643C239.66 125.045 241.546 125.833 243.513 125.833C245.479 125.833 247.366 125.045 248.756 123.643L286.334 85.7429L275.847 75.1666Z" fill="#A6F2BA"/>
<path d="M284.303 81.4999L242.969 122.195C241.825 123.321 240.387 124.089 238.833 124.431C240.13 125.336 241.689 125.833 243.3 125.833C245.348 125.833 247.314 125.032 248.763 123.605L287.917 85.0571L284.303 81.4999Z" fill="#8DD4A0"/>
<path d="M218.026 103.102L227.033 93.9795L230.189 97.1762C230.685 97.6788 231.491 97.679 231.987 97.1762L231.987 97.1762C232.483 96.6745 232.483 95.8613 231.987 95.3594L231.904 95.4414L231.987 95.3594L227.932 91.2521C227.435 90.7493 226.63 90.7493 226.133 91.2521L226.133 91.2521L215.33 102.194C214.835 102.695 214.835 103.509 215.33 104.01L235.954 124.898C237.637 126.603 239.875 127.542 242.255 127.542C244.635 127.542 246.873 126.603 248.556 124.899L248.467 124.811L248.556 124.899L275.004 98.112C275.499 97.6102 275.499 96.7971 275.004 96.2952C274.507 95.7923 273.701 95.7925 273.205 96.2952L246.758 123.081C245.554 124.3 243.956 124.97 242.255 124.97C240.554 124.97 238.956 124.3 237.753 123.081L218.026 103.102Z" fill="#333333" stroke="#333333" stroke-width="0.25"/>
<path d="M275.188 73.8151L275.188 73.8151L243.718 104.253C243.546 104.42 243.317 104.512 243.072 104.512C242.827 104.512 242.598 104.42 242.426 104.254L236.109 98.1434C235.617 97.6677 234.821 97.6677 234.329 98.1434C233.835 98.6212 233.835 99.398 234.329 99.876L240.646 105.986C241.295 106.613 242.157 106.958 243.072 106.958C243.987 106.958 244.849 106.613 245.497 105.986L245.419 105.905L245.497 105.986L276.078 76.4085L284.996 85.0349L276.951 92.8167C276.457 93.2945 276.457 94.0713 276.951 94.5493L277.038 94.4594L276.951 94.5493C277.443 95.0248 278.238 95.025 278.73 94.5493L278.648 94.4648L278.73 94.5493L287.671 85.9012C287.671 85.9012 287.671 85.9012 287.671 85.9012C287.908 85.6723 288.042 85.3606 288.042 85.0349C288.042 84.7092 287.908 84.3975 287.671 84.1686L276.967 73.8151C276.475 73.3394 275.679 73.3394 275.188 73.8151Z" fill="#333333" stroke="#333333" stroke-width="0.25"/>
</svg>
