<svg width="105" height="105" viewBox="0 0 105 105" fill="none" xmlns="http://www.w3.org/2000/svg">
<mask id="mask0" mask-type="alpha" maskUnits="userSpaceOnUse" x="0" y="0" width="105" height="105">
<path d="M105 52.5C105 62.8629 101.924 72.9413 96.1047 81.6451C94.8462 83.5285 92.2988 84.034 90.4154 82.7755C88.5321 81.5162 88.0266 78.9687 89.2851 77.0861C94.1998 69.7354 96.7969 61.2342 96.7969 52.5C96.7969 28.0749 76.9251 8.20312 52.5 8.20312C28.0749 8.20312 8.20312 28.0749 8.20312 52.5C8.20312 76.9251 28.0749 96.7969 52.5 96.7969C60.6014 96.7969 68.5257 94.5907 75.4151 90.4178C77.3521 89.2442 79.8747 89.8635 81.0483 91.8013C82.2219 93.7383 81.6027 96.2601 79.6648 97.4337C71.4938 102.384 62.1002 105 52.5 105C38.477 105 25.2927 99.539 15.3769 89.6231C5.46101 79.7073 0 66.523 0 52.5C0 38.477 5.46101 25.2927 15.3769 15.3769C25.2927 5.46101 38.477 0 52.5 0C66.523 0 79.7073 5.46101 89.6231 15.3769C99.539 25.2927 105 38.477 105 52.5V52.5ZM52.5016 77.9297C50.2361 77.9297 48.4 79.7658 48.4 82.0312C48.4 84.2967 50.2361 86.1328 52.5016 86.1328C54.7663 86.1328 56.6032 84.2967 56.6032 82.0312C56.6032 79.7658 54.7663 77.9297 52.5016 77.9297ZM61.1125 60.5926C69.2147 57.1335 74.449 49.2067 74.4466 40.3972C74.4466 40.3283 74.445 40.2594 74.4418 40.1905C74.3296 28.1878 64.5299 18.457 52.5016 18.457C40.4028 18.457 30.5598 28.3 30.5598 40.398C30.5598 42.6635 32.3959 44.4995 34.6614 44.4995C36.9269 44.4995 38.763 42.6635 38.763 40.398C38.763 32.8229 44.9257 26.6602 52.5016 26.6602C60.0767 26.6602 66.2394 32.8229 66.2394 40.398C66.2394 40.4541 66.2402 40.5085 66.2426 40.5638C66.1794 46.0152 62.9157 50.9034 57.8913 53.0487C52.214 55.472 48.4 61.3504 48.4 67.6758C48.4 69.9413 50.2361 71.7773 52.5016 71.7773C54.7663 71.7773 56.6032 69.9413 56.6032 67.6758C56.6032 64.5908 58.4152 61.7445 61.1125 60.5926Z" fill="url(#paint0_linear)"/>
</mask>
<g mask="url(#mask0)">
<rect y="-2.87109" width="105" height="110.742" fill="url(#paint1_linear)"/>
</g>
<defs>
<linearGradient id="paint0_linear" x1="0" y1="52.5" x2="105" y2="52.5" gradientUnits="userSpaceOnUse">
<stop stop-color="#00F2FE"/>
<stop offset="0.0208" stop-color="#03EFFE"/>
<stop offset="0.2931" stop-color="#24D2FE"/>
<stop offset="0.5538" stop-color="#3CBDFE"/>
<stop offset="0.7956" stop-color="#4AB0FE"/>
<stop offset="1" stop-color="#4FACFE"/>
</linearGradient>
<linearGradient id="paint1_linear" x1="111.825" y1="107.87" x2="-2.49492" y2="107.461" gradientUnits="userSpaceOnUse">
<stop stop-color="#FFC977"/>
<stop offset="1" stop-color="#DA8C75"/>
</linearGradient>
</defs>
</svg>
