<svg width="105" height="105" viewBox="0 0 105 105" fill="none" xmlns="http://www.w3.org/2000/svg">
<mask id="mask0" mask-type="alpha" maskUnits="userSpaceOnUse" x="0" y="0" width="105" height="105">
<path d="M102.551 59.9365C101.153 61.8086 98.5764 62.1374 96.7923 60.6715C95.0099 59.2048 94.6959 56.4984 96.093 54.6263C97.0271 53.3748 97.0271 51.6263 96.093 50.3741C96.085 50.364 96.0778 50.353 96.0698 50.3429L91.4002 43.9646C89.5305 41.7629 89.5681 38.6671 89.5978 36.1608C89.601 35.8909 89.6042 35.6268 89.6042 35.3745V27.2452C89.6042 25.3924 87.6976 24.5388 86.5608 24.1956L78.8223 21.8559C76.2492 21.078 73.999 19.3774 72.4865 17.0688L67.9507 10.1455C67.0832 8.82178 65.4602 8.27596 64.0046 8.8201L56.3966 11.6594C53.8844 12.5971 51.1167 12.5971 48.6045 11.6594L40.9965 8.8201C39.5409 8.27596 37.9179 8.82094 37.0504 10.1447L32.5146 17.0688C31.0013 19.3774 28.7511 21.078 26.1788 21.8559C26.0818 21.8853 25.9849 21.9106 25.8864 21.9316L17.825 23.7104C16.3654 24.2082 15.3505 25.6245 15.3945 27.1241C15.3961 27.1695 15.3969 27.2141 15.3969 27.2586V35.6646C15.3969 35.8976 15.4017 36.1423 15.4065 36.3938C15.4458 38.3651 15.5043 41.3407 13.7146 43.762L8.93935 50.3312C8.92894 50.3455 8.91852 50.3606 8.90811 50.3749C7.97404 51.6263 7.97404 53.3748 8.90811 54.6263C8.91612 54.638 8.92413 54.649 8.93214 54.6599L13.709 61.1913C15.4915 63.5949 15.445 66.3854 15.4081 68.6284C15.4025 68.9564 15.3969 69.2911 15.3969 69.6334V78.0529C15.3969 78.0974 15.3961 78.142 15.3945 78.1866C15.3465 79.8224 18.1238 80.7097 18.4403 80.8055L26.1788 83.1453C28.7519 83.9232 31.0021 85.6237 32.5146 87.9323L37.0504 94.8556C37.9179 96.1794 39.5409 96.7244 40.9957 96.1811L48.6045 93.3418C51.1167 92.4032 53.8844 92.404 56.3966 93.3418L64.0046 96.1811C65.461 96.7244 67.0832 96.1794 67.9499 94.8556L72.4865 87.9323C73.999 85.6237 76.2492 83.9232 78.8223 83.1453L86.5608 80.8055C87.9764 80.3775 89.6554 77.8132 89.6066 76.1547C89.5361 73.778 91.3137 71.7906 93.5776 71.7166C95.8342 71.6393 97.7344 73.5088 97.8049 75.8864C97.9715 81.517 93.862 87.5589 88.8311 89.0803L81.0926 91.42C80.3404 91.648 79.6835 92.1416 79.2445 92.8128L74.7087 99.7361C71.7391 104.268 66.2068 106.142 61.2568 104.295L53.6481 101.456C52.9079 101.179 52.0924 101.179 51.3522 101.456L43.7434 104.295C42.4673 104.771 41.1535 105 39.8542 105C36.1123 105 32.4962 103.1 30.2924 99.7361L25.7558 92.8128C25.3168 92.1425 24.6599 91.648 23.9069 91.42L16.17 89.0803C10.5087 87.3689 7.07602 83.1251 7.19378 77.994V69.6326C7.19378 69.2407 7.20019 68.8555 7.20659 68.4787C7.21861 67.7428 7.23463 66.7529 7.14892 66.361L2.43691 59.9188C-0.810701 55.5497 -0.812303 49.459 2.43211 45.0883L7.1369 38.6158C7.23784 38.202 7.21781 37.1902 7.20579 36.5712C7.19939 36.2592 7.19378 35.9548 7.19378 35.6646V27.3183C7.064 21.8441 10.5407 16.9486 15.6709 15.3977C15.7678 15.3683 15.8648 15.3431 15.9625 15.3212L24.0238 13.5433C24.728 13.3019 25.3392 12.8242 25.7558 12.1884L30.2924 5.26427C33.2612 0.732011 38.7927 -1.14262 43.7434 0.705098L51.3522 3.54522C52.0924 3.82108 52.9079 3.82108 53.6489 3.54522L61.2568 0.705098C66.2084 -1.14262 71.7391 0.732852 74.7087 5.26511L79.2445 12.1875C79.6843 12.8587 80.3404 13.3532 81.0926 13.5803L88.8311 15.92C94.3674 17.5945 97.8065 21.9333 97.8065 27.2452V35.3745C97.8065 35.6621 97.8033 35.9623 97.7993 36.2693C97.7913 36.9724 97.7777 38.091 97.8602 38.6561L102.564 45.0832C105.817 49.4599 105.812 55.5648 102.551 59.9365V59.9365ZM56.6017 27.9869C56.6017 25.6085 54.7656 23.6809 52.5001 23.6809C50.2355 23.6809 48.3994 25.6085 48.3994 27.9869V61.5714C48.3994 63.9498 50.2355 65.8774 52.5001 65.8774C54.7656 65.8774 56.6017 63.9498 56.6017 61.5714V27.9869ZM56.4231 75.3902C56.3838 75.2565 56.339 75.1236 56.2877 74.9941C56.2364 74.8654 56.1787 74.7359 56.1155 74.6131C56.0538 74.4886 55.9841 74.3675 55.9104 74.2515C55.8367 74.1329 55.755 74.0185 55.6709 73.9108C55.5867 73.8015 55.4946 73.6956 55.4001 73.5972C55.3056 73.4979 55.2054 73.4012 55.1005 73.3129C54.9979 73.2246 54.889 73.138 54.7768 73.0606C54.6655 72.9832 54.5493 72.91 54.4324 72.8453C54.3154 72.7788 54.192 72.7183 54.0687 72.6645C53.9461 72.6106 53.8187 72.5635 53.6914 72.5232C53.5624 72.482 53.431 72.4475 53.302 72.4197C53.1707 72.3911 53.0353 72.3701 52.9039 72.3566C52.6355 72.3289 52.3648 72.3289 52.0964 72.3566C51.965 72.3701 51.8296 72.3911 51.6991 72.4197C51.5693 72.4475 51.4379 72.482 51.3089 72.5232C51.1816 72.5635 51.055 72.6106 50.9316 72.6645C50.8091 72.7183 50.6857 72.7788 50.5687 72.8453C50.4518 72.91 50.3348 72.9832 50.2243 73.0606C50.1113 73.138 50.0024 73.2246 49.8998 73.3129C49.7957 73.4012 49.6947 73.4979 49.601 73.5972C49.5065 73.6956 49.4144 73.8015 49.3302 73.9108C49.2461 74.0185 49.1636 74.1329 49.0899 74.2515C49.0162 74.3675 48.9465 74.4886 48.8848 74.6131C48.8215 74.7359 48.7639 74.8654 48.7126 74.9941C48.6613 75.1236 48.6165 75.2565 48.5772 75.3902C48.5388 75.5256 48.5059 75.6619 48.4795 75.7998C48.453 75.9369 48.4322 76.079 48.4194 76.2169C48.4058 76.3591 48.3994 76.5012 48.3994 76.6408C48.3994 76.7813 48.405 76.9234 48.4194 77.0655C48.4322 77.2034 48.4522 77.3456 48.4795 77.4827C48.5059 77.6189 48.5388 77.756 48.5772 77.8914C48.6165 78.0251 48.6613 78.1588 48.7126 78.2875C48.7639 78.417 48.8215 78.5466 48.8848 78.6693C48.9465 78.7921 49.0162 78.9149 49.0899 79.031C49.1636 79.1496 49.2461 79.2631 49.3302 79.3708C49.4144 79.4809 49.5065 79.5861 49.601 79.6853C49.6947 79.7845 49.7957 79.8813 49.8998 79.9696C50.0024 80.0579 50.1113 80.1437 50.2243 80.221C50.3348 80.2992 50.4518 80.3699 50.5687 80.4363C50.6857 80.5036 50.8091 80.5633 50.9316 80.6171C51.055 80.671 51.1816 80.7189 51.3089 80.7593C51.4379 80.8005 51.5701 80.835 51.6991 80.8627C51.8296 80.8913 51.965 80.9123 52.0964 80.925C52.2318 80.9401 52.3672 80.9468 52.5001 80.9468C52.6339 80.9468 52.7693 80.9401 52.9047 80.925C53.0361 80.9123 53.1707 80.8913 53.302 80.8627C53.4318 80.835 53.5624 80.8005 53.6914 80.7593C53.8187 80.7189 53.9461 80.671 54.0687 80.6171C54.192 80.5633 54.3154 80.5036 54.4324 80.4363C54.5493 80.3699 54.6663 80.2992 54.7768 80.221C54.8898 80.1437 54.9979 80.0579 55.1005 79.9696C55.2054 79.8813 55.3056 79.7845 55.4001 79.6853C55.4946 79.5861 55.5867 79.4809 55.6709 79.3708C55.755 79.2631 55.8367 79.1496 55.9104 79.031C55.9849 78.9149 56.0546 78.7921 56.1155 78.6693C56.1795 78.5466 56.2364 78.417 56.2877 78.2875C56.339 78.1588 56.3846 78.0251 56.4231 77.8914C56.4623 77.756 56.4952 77.6181 56.5216 77.4827C56.5489 77.3447 56.5689 77.2026 56.5809 77.0655C56.5953 76.9234 56.6017 76.7813 56.6017 76.6408C56.6017 76.5012 56.5953 76.3591 56.5809 76.2169C56.5689 76.079 56.5489 75.9369 56.5216 75.7998C56.4944 75.6619 56.4615 75.5256 56.4231 75.3902Z" fill="url(#paint0_linear)"/>
</mask>
<g mask="url(#mask0)">
<rect x="-0.205566" width="105.206" height="116.49" fill="url(#paint1_linear)"/>
</g>
<defs>
<linearGradient id="paint0_linear" x1="2.66894e-05" y1="52.5004" x2="105" y2="52.5004" gradientUnits="userSpaceOnUse">
<stop stop-color="#00F2FE"/>
<stop offset="0.0208" stop-color="#03EFFE"/>
<stop offset="0.2931" stop-color="#24D2FE"/>
<stop offset="0.5538" stop-color="#3CBDFE"/>
<stop offset="0.7956" stop-color="#4AB0FE"/>
<stop offset="1" stop-color="#4FACFE"/>
</linearGradient>
<linearGradient id="paint1_linear" x1="111.839" y1="116.489" x2="-2.70551" y2="116.099" gradientUnits="userSpaceOnUse">
<stop stop-color="#FFC977"/>
<stop offset="1" stop-color="#DA8C75"/>
</linearGradient>
</defs>
</svg>
